<?xml version="1.0" standalone="no"?>
<!DOCTYPE svg PUBLIC "-//W3C//DTD SVG 20010904//EN"
 "http://www.w3.org/TR/2001/REC-SVG-20010904/DTD/svg10.dtd">
<svg version="1.0" xmlns="http://www.w3.org/2000/svg"
 width="1024.000000pt" height="1024.000000pt" viewBox="0 0 1024.000000 1024.000000"
 preserveAspectRatio="xMidYMid meet">

<g transform="translate(0.000000,1024.000000) scale(0.100000,-0.100000)"
fill="#000000" stroke="none">
<path d="M3475 8325 c-246 -45 -414 -132 -567 -294 -141 -148 -219 -293 -275
-506 l-28 -110 0 -1085 c0 -826 3 -1099 12 -1145 52 -248 172 -460 333 -588
44 -35 128 -86 202 -122 218 -108 64 -100 1933 -100 l1610 0 85 23 c192 53
328 130 466 267 45 44 93 103 108 130 14 28 56 99 92 158 113 186 105 82 102
1368 l-3 1104 -27 96 c-73 266 -199 458 -401 610 -143 108 -285 167 -467 194
-133 21 -3066 20 -3175 0z m2965 -506 c206 -70 345 -237 381 -456 6 -40 10
-196 10 -373 0 -278 -2 -311 -21 -371 -25 -81 -100 -198 -167 -261 -87 -81
-231 -143 -366 -158 -124 -15 -2338 -15 -2422 -1 -123 21 -285 101 -373 184
-48 47 -108 143 -132 217 -46 136 -53 693 -11 838 27 94 74 176 132 232 85 83
230 155 342 170 34 4 622 7 1307 6 l1245 -1 75 -26z m113 -1999 c124 -38 228
-126 290 -245 30 -56 32 -67 32 -165 0 -123 -16 -180 -76 -276 -31 -48 -57
-74 -110 -110 -121 -80 -213 -104 -328 -85 -146 24 -279 131 -342 277 -32 73
-34 87 -34 184 0 105 0 106 47 202 37 77 55 103 90 128 56 42 148 88 196 99
67 16 166 12 235 -9z m-2699 -10 c122 -38 242 -155 282 -275 21 -61 23 -179 5
-255 -39 -160 -160 -287 -320 -334 -97 -29 -225 -12 -323 41 -75 41 -169 147
-204 229 -26 63 -29 79 -29 189 l0 120 40 79 c22 44 55 91 74 107 43 35 142
88 195 105 65 20 204 17 280 -6z"/>
<path d="M4995 7581 c-1356 -7 -1240 0 -1330 -82 -58 -53 -89 -107 -108 -184
-12 -49 -14 -108 -8 -330 l7 -270 31 -60 c37 -73 106 -138 176 -170 51 -22 63
-23 432 -28 209 -3 774 -2 1255 1 l875 7 55 26 c70 34 138 102 178 177 l32 59
0 304 c0 167 -3 318 -8 334 -41 138 -143 214 -294 219 -46 1 -627 0 -1293 -3z"/>
<path d="M6313 5596 c-60 -29 -76 -49 -99 -134 -21 -77 -10 -140 36 -207 74
-108 201 -131 313 -57 78 52 124 211 83 289 -60 116 -211 165 -333 109z"/>
<path d="M3618 5608 c-136 -36 -187 -225 -98 -360 33 -50 87 -84 147 -94 54
-8 144 18 187 56 62 55 101 189 76 264 -37 113 -172 171 -312 134z"/>
<path d="M6735 4197 c-29 -5 -242 -10 -508 -11 l-457 -1 6 -30 c12 -56 45
-106 121 -186 116 -121 209 -159 393 -159 117 0 223 37 313 108 81 65 233 298
190 291 -5 -1 -30 -6 -58 -12z"/>
<path d="M3395 4179 c38 -121 160 -271 265 -324 132 -66 338 -66 471 1 69 35
211 192 249 276 l19 43 -477 6 c-262 3 -490 10 -506 14 -26 7 -28 6 -21 -16z"/>
<path d="M3182 3708 c-39 -95 -85 -211 -103 -258 -18 -47 -52 -134 -77 -195
-84 -206 -375 -930 -405 -1006 -26 -69 -29 -83 -23 -142 9 -83 36 -124 100
-156 41 -21 64 -25 145 -25 64 0 115 5 154 17 l58 18 40 81 c21 45 39 88 39
95 0 11 356 13 1959 13 l1959 0 27 -78 c36 -104 48 -118 120 -137 67 -17 213
-20 264 -5 63 18 120 91 135 173 15 79 -33 214 -274 777 -117 273 -201 477
-332 805 -33 83 -64 157 -69 166 -7 14 -24 1 -97 -72 -71 -71 -104 -96 -163
-123 -123 -56 -322 -94 -424 -81 -27 3 -118 28 -202 56 -148 48 -154 49 -220
40 -103 -15 -628 -21 -1004 -12 -322 8 -339 9 -384 31 l-47 23 -52 -22 c-28
-13 -98 -41 -156 -64 -104 -41 -107 -42 -230 -41 -108 0 -142 5 -244 32 -196
52 -292 109 -368 219 -16 24 -35 43 -42 43 -8 0 -42 -70 -84 -172z m3383 -544
l80 -5 22 -67 c29 -91 136 -395 161 -457 l20 -50 -1771 2 c-973 1 -1772 4
-1774 7 -10 10 115 379 161 476 14 30 26 64 26 76 0 11 2 23 4 25 7 6 2981 0
3071 -7z"/>
</g>
</svg>
